<?xml version="1.0" encoding="iso-8859-1"?>
<!-- Generator: Adobe Illustrator 19.0.0, SVG Export Plug-In . SVG Version: 6.00 Build 0)  -->
<svg version="1.1" id="Layer_1" xmlns="http://www.w3.org/2000/svg" xmlns:xlink="http://www.w3.org/1999/xlink" x="0px" y="0px"
	 viewBox="0 0 512.001 512.001" style="enable-background:new 0 0 512.001 512.001;" xml:space="preserve">
<path style="fill:#ACACB2;" d="M309.444,183.052l-21.163-12.143c-1.393-0.799-2.247-2.287-2.235-3.892
	c0.012-1.606,0.889-3.08,2.294-3.858l21.345-11.819c3.194-1.768,4.953-5.337,4.408-8.948c-0.544-3.61-3.274-6.502-6.849-7.252
	l-23.88-5.008c-1.572-0.329-2.843-1.481-3.328-3.011s-0.107-3.203,0.989-4.377l16.648-17.837c2.491-2.669,3.061-6.606,1.428-9.872
	c-1.633-3.267-5.124-5.173-8.755-4.781l-24.258,2.616c-1.596,0.172-3.161-0.529-4.095-1.835c-0.934-1.306-1.092-3.013-0.412-4.468
	l10.321-22.108c1.545-3.309,0.87-7.229-1.693-9.83c-2.562-2.601-6.471-3.336-9.803-1.842l-22.262,9.984
	c-1.465,0.658-3.17,0.474-4.462-0.48c-1.292-0.953-1.969-2.529-1.773-4.122l2.985-24.216c0.447-3.624-1.406-7.143-4.647-8.826
	c-3.241-1.683-7.185-1.173-9.892,1.277L202.267,42.78c-1.191,1.077-2.869,1.43-4.392,0.922c-1.523-0.508-2.655-1.797-2.96-3.373
	l-4.645-23.952c-0.695-3.585-3.545-6.36-7.148-6.958c-3.602-0.598-7.196,1.105-9.014,4.272l-12.143,21.163
	c-0.799,1.393-2.287,2.246-3.892,2.235c-1.605-0.012-3.08-0.889-3.858-2.294L142.397,13.45c-1.768-3.194-5.337-4.953-8.948-4.408
	s-6.502,3.274-7.252,6.849l-5.008,23.88c-0.33,1.572-1.481,2.843-3.011,3.328c-1.531,0.484-3.203,0.107-4.377-0.99L95.964,25.461
	c-2.669-2.491-6.607-3.061-9.872-1.428c-3.266,1.633-5.173,5.124-4.781,8.754l2.616,24.258c0.172,1.597-0.53,3.162-1.835,4.095
	c-1.306,0.934-3.015,1.092-4.468,0.412L55.515,51.232c-3.309-1.545-7.229-0.87-9.83,1.693s-3.336,6.472-1.842,9.803l9.984,22.262
	c0.656,1.465,0.473,3.17-0.48,4.462c-0.953,1.292-2.529,1.969-4.123,1.773L25.008,88.24c-3.624-0.447-7.143,1.407-8.826,4.647
	s-1.173,7.185,1.277,9.892l16.376,18.087c1.077,1.191,1.43,2.869,0.922,4.392c-0.508,1.524-1.797,2.655-3.373,2.96l-23.953,4.645
	c-3.584,0.695-6.359,3.545-6.958,7.148c-0.599,3.602,1.105,7.196,4.272,9.014l21.163,12.143c1.393,0.799,2.247,2.287,2.235,3.892
	c-0.012,1.605-0.889,3.079-2.294,3.858l-21.343,11.82c-3.194,1.769-4.953,5.337-4.408,8.948s3.274,6.502,6.849,7.252l23.88,5.008
	c1.572,0.33,2.843,1.481,3.328,3.011s0.107,3.203-0.989,4.377L16.517,227.17c-2.491,2.669-3.061,6.607-1.427,9.872
	c1.633,3.266,5.124,5.173,8.755,4.782l24.258-2.616c1.596-0.172,3.161,0.53,4.095,1.835c0.934,1.306,1.092,3.013,0.412,4.468
	L42.289,267.62c-1.545,3.309-0.87,7.229,1.693,9.83c2.562,2.601,6.471,3.336,9.803,1.842l22.262-9.984
	c1.465-0.656,3.17-0.473,4.462,0.48s1.969,2.529,1.773,4.123l-2.985,24.215c-0.447,3.624,1.406,7.144,4.647,8.826
	c3.241,1.682,7.185,1.173,9.892-1.278l18.087-16.374c1.191-1.077,2.869-1.431,4.392-0.923s2.655,1.797,2.96,3.373l4.645,23.953
	c0.695,3.584,3.545,6.359,7.148,6.958c3.602,0.599,7.196-1.105,9.014-4.273l12.143-21.163c0.799-1.393,2.287-2.247,3.892-2.235
	c1.605,0.012,3.08,0.889,3.858,2.293l11.819,21.345c1.768,3.194,5.337,4.953,8.948,4.408c3.611-0.544,6.502-3.274,7.252-6.849
	l5.008-23.88c0.33-1.572,1.481-2.843,3.011-3.328c1.531-0.485,3.203-0.107,4.377,0.989l17.837,16.648
	c2.669,2.491,6.607,3.06,9.872,1.427c3.266-1.633,5.173-5.124,4.781-8.754l-2.616-24.258c-0.172-1.596,0.53-3.161,1.835-4.095
	s3.015-1.091,4.468-0.412l22.108,10.321c3.309,1.545,7.229,0.87,9.83-1.693c2.601-2.562,3.336-6.471,1.842-9.803l-9.984-22.262
	c-0.656-1.465-0.473-3.17,0.48-4.462c0.954-1.292,2.529-1.969,4.123-1.773l24.215,2.985c3.624,0.447,7.143-1.407,8.826-4.647
	c1.683-3.241,1.173-7.186-1.277-9.893l-16.376-18.087c-1.077-1.19-1.431-2.869-0.922-4.392c0.508-1.523,1.797-2.655,3.373-2.96
	l23.953-4.645c3.584-0.695,6.359-3.545,6.958-7.148C314.314,188.464,312.61,184.869,309.444,183.052z M157.096,187.625
	c-11.921,0-21.586-9.664-21.586-21.586s9.664-21.586,21.586-21.586s21.586,9.664,21.586,21.586
	C178.682,177.961,169.017,187.625,157.096,187.625z"/>
<g>
	<path style="fill:#797882;" d="M288.34,163.161l21.345-11.819c3.194-1.768,4.953-5.337,4.408-8.948
		c-0.544-3.61-3.274-6.502-6.849-7.252l-23.88-5.008c-1.572-0.329-2.843-1.481-3.328-3.011c-0.484-1.531-0.107-3.203,0.989-4.377
		l16.648-17.837c2.491-2.669,3.061-6.606,1.428-9.872c-1.633-3.267-5.124-5.173-8.755-4.781l-24.258,2.616
		c-1.596,0.172-3.161-0.529-4.095-1.835c-0.934-1.306-1.092-3.013-0.412-4.468l10.321-22.108c1.545-3.309,0.87-7.229-1.693-9.83
		s-6.471-3.336-9.803-1.842l-22.262,9.984c-1.465,0.658-3.17,0.474-4.462-0.48c-1.292-0.953-1.969-2.529-1.773-4.122l2.985-24.216
		c0.447-3.624-1.406-7.143-4.647-8.826s-7.185-1.173-9.892,1.277l-18.087,16.376c-1.191,1.077-2.869,1.43-4.392,0.922
		c-1.523-0.508-2.655-1.797-2.96-3.373l-4.645-23.952c-0.695-3.585-3.545-6.36-7.148-6.958c-3.602-0.598-7.196,1.105-9.014,4.272
		l-12.143,21.163c-0.799,1.393-2.287,2.246-3.892,2.235c-0.334-0.002-0.661-0.051-0.979-0.126v107.49
		c11.921,0,21.586,9.664,21.586,21.586c0,11.921-9.664,21.586-21.586,21.586v107.49c1.208,0.283,2.263,1.056,2.879,2.168
		l11.819,21.345c1.768,3.194,5.337,4.953,8.948,4.408c3.611-0.544,6.502-3.274,7.252-6.849l5.008-23.88
		c0.33-1.572,1.481-2.843,3.011-3.328c1.531-0.485,3.203-0.107,4.377,0.989l17.837,16.648c2.669,2.491,6.607,3.06,9.872,1.427
		c3.266-1.633,5.173-5.124,4.781-8.754l-2.616-24.258c-0.172-1.596,0.53-3.161,1.835-4.095c1.305-0.934,3.015-1.091,4.468-0.412
		l22.108,10.321c3.309,1.545,7.229,0.87,9.83-1.693c2.601-2.562,3.336-6.471,1.842-9.803l-9.984-22.262
		c-0.656-1.465-0.473-3.17,0.48-4.462c0.954-1.292,2.529-1.969,4.123-1.773l24.215,2.985c3.624,0.447,7.143-1.407,8.826-4.647
		c1.683-3.241,1.173-7.186-1.277-9.893l-16.376-18.087c-1.077-1.19-1.431-2.869-0.922-4.392c0.508-1.523,1.797-2.655,3.373-2.96
		l23.953-4.645c3.584-0.695,6.359-3.545,6.958-7.148c0.599-3.602-1.105-7.196-4.272-9.014l-21.163-12.143
		c-1.393-0.799-2.247-2.287-2.235-3.892C286.058,165.413,286.935,163.939,288.34,163.161z"/>
	<path style="fill:#797882;" d="M506.182,380.375l-18.817-11.859c-1.238-0.78-1.959-2.167-1.888-3.63
		c0.072-1.462,0.925-2.771,2.235-3.427l19.889-9.959c2.977-1.491,4.713-4.674,4.354-7.984c-0.359-3.309-2.737-6.046-5.964-6.864
		l-21.56-5.464c-1.418-0.359-2.534-1.456-2.917-2.869c-0.383-1.412,0.024-2.921,1.066-3.95l15.838-15.617
		c2.37-2.338,3.038-5.901,1.674-8.938c-1.364-3.037-4.472-4.905-7.793-4.686l-22.194,1.466c-1.461,0.096-2.86-0.602-3.661-1.827
		s-0.88-2.787-0.207-4.086l10.237-19.747c1.532-2.956,1.065-6.551-1.171-9.018c-2.236-2.466-5.768-3.283-8.859-2.048l-20.655,8.253
		c-1.36,0.543-2.906,0.311-4.046-0.605c-1.141-0.917-1.698-2.378-1.459-3.822l3.633-21.944c0.544-3.284-1.012-6.56-3.9-8.215
		s-6.501-1.341-9.059,0.79l-17.093,14.232c-1.125,0.936-2.667,1.194-4.035,0.673c-1.368-0.52-2.35-1.736-2.569-3.183l-3.326-21.993
		c-0.498-3.291-2.989-5.926-6.247-6.608c-3.258-0.682-6.597,0.734-8.372,3.551l-11.859,18.817c-0.781,1.238-2.167,1.959-3.63,1.888
		c-1.462-0.071-2.771-0.925-3.427-2.235l-9.959-19.889c-1.491-2.976-4.674-4.712-7.983-4.353s-6.047,2.737-6.864,5.965l-5.464,21.56
		c-0.36,1.418-1.456,2.534-2.868,2.917c-1.413,0.383-2.922-0.023-3.95-1.066l-15.617-15.837c-2.337-2.37-5.901-3.038-8.938-1.674
		c-3.037,1.364-4.905,4.471-4.685,7.793l1.466,22.194c0.097,1.46-0.602,2.86-1.826,3.66c-1.225,0.802-2.787,0.88-4.086,0.207
		l-19.747-10.237c-2.956-1.532-6.551-1.065-9.018,1.171c-2.466,2.236-3.283,5.769-2.048,8.86l8.253,20.655
		c0.543,1.358,0.311,2.906-0.605,4.046c-0.917,1.141-2.378,1.697-3.822,1.458l-21.944-3.633c-3.283-0.544-6.56,1.012-8.215,3.899
		c-1.655,2.889-1.34,6.501,0.79,9.059l14.232,17.094c0.936,1.125,1.194,2.667,0.674,4.035s-1.737,2.35-3.184,2.569L233,323.247
		c-3.291,0.498-5.926,2.989-6.608,6.247c-0.681,3.259,0.734,6.597,3.551,8.372l18.817,11.859c1.238,0.78,1.96,2.167,1.888,3.629
		c-0.072,1.462-0.925,2.771-2.235,3.427l-19.889,9.959c-2.977,1.491-4.713,4.674-4.354,7.984c0.359,3.309,2.737,6.047,5.964,6.864
		l21.56,5.464c1.418,0.36,2.534,1.456,2.917,2.869c0.383,1.413-0.024,2.922-1.066,3.95l-15.838,15.617
		c-2.37,2.337-3.038,5.901-1.674,8.938c1.364,3.037,4.472,4.905,7.793,4.685l22.194-1.466c1.461-0.097,2.86,0.602,3.661,1.827
		s0.88,2.786,0.207,4.085l-10.237,19.747c-1.532,2.956-1.065,6.551,1.171,9.018c2.236,2.466,5.768,3.283,8.859,2.048l20.655-8.253
		c1.36-0.543,2.906-0.312,4.046,0.605c1.141,0.917,1.698,2.378,1.46,3.822l-3.633,21.944c-0.544,3.284,1.012,6.56,3.9,8.215
		c2.888,1.654,6.501,1.34,9.059-0.79l17.093-14.232c1.125-0.936,2.667-1.194,4.035-0.674c1.368,0.52,2.35,1.737,2.569,3.184
		l3.326,21.992c0.498,3.291,2.989,5.926,6.247,6.608c3.258,0.682,6.597-0.734,8.372-3.551l11.859-18.817
		c0.781-1.237,2.167-1.959,3.63-1.888c1.463,0.071,2.771,0.925,3.427,2.235l9.959,19.889c1.491,2.977,4.674,4.713,7.983,4.353
		c3.309-0.359,6.047-2.737,6.864-5.964l5.464-21.562c0.36-1.418,1.456-2.534,2.868-2.917c1.413-0.384,2.922,0.023,3.95,1.066
		l15.617,15.837c2.337,2.37,5.901,3.038,8.938,1.674s4.905-4.472,4.685-7.793l-1.466-22.194c-0.097-1.461,0.602-2.86,1.826-3.661
		c1.225-0.801,2.787-0.88,4.086-0.207l19.747,10.237c2.956,1.532,6.551,1.065,9.018-1.171c2.466-2.236,3.283-5.768,2.048-8.86
		l-8.253-20.654c-0.543-1.36-0.312-2.906,0.605-4.046c0.917-1.141,2.378-1.698,3.822-1.46l21.944,3.633
		c3.284,0.543,6.56-1.012,8.215-3.9c1.655-2.888,1.34-6.501-0.79-9.058l-14.232-17.094c-0.936-1.125-1.194-2.667-0.674-4.035
		c0.52-1.368,1.737-2.35,3.184-2.569l21.992-3.326c3.291-0.499,5.926-2.989,6.608-6.248S508.999,382.15,506.182,380.375z
		 M367.291,377.691c-10.257-0.425-18.225-9.085-17.799-19.341c0.425-10.255,9.085-18.225,19.341-17.798
		c10.257,0.424,18.225,9.085,17.799,19.34C386.206,370.148,377.547,378.118,367.291,377.691z"/>
	<path style="fill:#797882;" d="M157.096,90.139c-41.918,0-75.9,33.982-75.9,75.9s33.982,75.9,75.9,75.9s75.9-33.982,75.9-75.9
		S199.014,90.139,157.096,90.139z M157.096,187.625c-11.921,0-21.586-9.664-21.586-21.586s9.664-21.586,21.586-21.586
		s21.586,9.664,21.586,21.586C178.682,177.961,169.017,187.625,157.096,187.625z"/>
</g>
<g>
	<path style="fill:#3E3E42;" d="M371.024,289.993c-38.179-1.636-70.455,27.988-72.091,66.166s27.987,70.455,66.166,72.091
		c38.178,1.636,70.455-27.987,72.091-66.166C438.826,323.905,409.202,291.63,371.024,289.993z M367.266,377.691
		c-10.255-0.44-18.213-9.109-17.774-19.365c0.44-10.255,9.109-18.213,19.365-17.773c10.255,0.439,18.213,9.109,17.773,19.365
		C386.191,370.173,377.522,378.13,367.266,377.691z"/>
	<path style="fill:#3E3E42;" d="M178.682,166.039c0,11.921-9.664,21.586-21.586,21.586v54.314c41.918,0,75.9-33.982,75.9-75.9
		c0-41.919-33.982-75.9-75.9-75.9v54.314C169.017,144.453,178.682,154.118,178.682,166.039z"/>
	<path style="fill:#3E3E42;" d="M487.712,361.459l19.889-9.959c2.977-1.491,4.713-4.674,4.354-7.984
		c-0.359-3.309-2.737-6.046-5.964-6.864l-21.56-5.464c-1.418-0.359-2.534-1.456-2.917-2.869c-0.383-1.412,0.024-2.921,1.066-3.95
		l15.838-15.617c2.37-2.338,3.038-5.901,1.674-8.938c-1.364-3.037-4.472-4.905-7.793-4.686l-22.194,1.466
		c-1.461,0.096-2.86-0.602-3.661-1.827c-0.801-1.225-0.88-2.787-0.207-4.086l10.237-19.747c1.532-2.956,1.065-6.551-1.171-9.018
		c-2.236-2.466-5.768-3.283-8.859-2.048l-20.655,8.253c-1.36,0.543-2.906,0.311-4.046-0.605c-1.141-0.917-1.698-2.378-1.46-3.822
		l3.633-21.944c0.544-3.284-1.012-6.56-3.9-8.215s-6.501-1.341-9.059,0.79l-17.093,14.232c-1.125,0.936-2.667,1.194-4.035,0.673
		c-1.368-0.52-2.35-1.736-2.569-3.183l-3.326-21.993c-0.498-3.291-2.989-5.926-6.247-6.608c-3.258-0.682-6.597,0.734-8.372,3.551
		l-11.859,18.817c-0.781,1.238-2.167,1.959-3.63,1.888c-1.462-0.071-2.771-0.925-3.427-2.235l-2.338-4.668v105.756
		c0.258,0,0.511-0.018,0.771-0.007c10.257,0.424,18.225,9.085,17.799,19.34c-0.414,9.997-8.657,17.797-18.57,17.793v105.756
		l7.621,15.22c1.491,2.977,4.674,4.713,7.983,4.353c3.309-0.359,6.047-2.737,6.864-5.964l5.464-21.562
		c0.36-1.418,1.456-2.534,2.868-2.917c1.413-0.384,2.922,0.023,3.95,1.066l15.617,15.837c2.337,2.37,5.901,3.038,8.938,1.674
		c3.037-1.364,4.905-4.472,4.685-7.793l-1.466-22.194c-0.097-1.461,0.602-2.86,1.826-3.661c1.225-0.801,2.787-0.88,4.086-0.207
		l19.747,10.237c2.956,1.532,6.551,1.065,9.018-1.171c2.466-2.236,3.283-5.768,2.048-8.86l-8.253-20.654
		c-0.543-1.36-0.312-2.906,0.605-4.046c0.917-1.141,2.378-1.698,3.822-1.46l21.944,3.633c3.284,0.543,6.56-1.012,8.215-3.9
		c1.655-2.888,1.34-6.501-0.79-9.058l-14.232-17.094c-0.936-1.125-1.194-2.667-0.674-4.035c0.52-1.368,1.737-2.35,3.184-2.569
		l21.992-3.326c3.291-0.499,5.926-2.989,6.608-6.248c0.682-3.259-0.734-6.597-3.551-8.372l-18.817-11.859
		c-1.238-0.78-1.959-2.167-1.888-3.63C485.549,363.425,486.403,362.114,487.712,361.459z"/>
</g>
<path style="fill:#2D2E30;" d="M371.024,289.993c-0.992-0.042-1.978-0.051-2.962-0.052v50.618c0.265,0,0.528-0.018,0.795-0.006
	c10.255,0.439,18.213,9.109,17.774,19.365c-0.428,9.988-8.667,17.772-18.569,17.767v50.617
	c36.871,0.026,67.535-29.032,69.129-66.217C438.826,323.905,409.202,291.63,371.024,289.993z"/>
<g>
</g>
<g>
</g>
<g>
</g>
<g>
</g>
<g>
</g>
<g>
</g>
<g>
</g>
<g>
</g>
<g>
</g>
<g>
</g>
<g>
</g>
<g>
</g>
<g>
</g>
<g>
</g>
<g>
</g>
</svg>
